<?xml version="1.0" encoding="utf-8"?>
<!-- Generator: Adobe Illustrator 26.2.1, SVG Export Plug-In . SVG Version: 6.00 Build 0)  -->
<svg version="1.1" id="Layer_1" xmlns="http://www.w3.org/2000/svg" xmlns:xlink="http://www.w3.org/1999/xlink" x="0px" y="0px"
	 viewBox="0 0 239.4 336.1" style="enable-background:new 0 0 239.4 336.1;" xml:space="preserve">
<path d="M234.4,186.3c-5.6-18.3-15.9-34-26.7-49.5c-10.4-14.9-21.5-29.2-31.5-44.4c-15.3-23.2-26.9-48.2-35.3-74.7
	c-2.2-6.8-5.5-12.9-12.6-15.9c-12.8-5.3-25.2,0.6-29.6,15C88.9,49,73.5,78.1,54.3,105.4c-10.8,15.4-22.5,30.2-32.6,46
	c-17.5,27.3-26,56.4-19.5,88.8c8.4,41.5,33,70.2,71.5,86.2c34.4,14.3,69.3,12.7,102.3-4.9c40.7-21.8,61.4-56.7,63.4-100.6
	C239,207.8,237.7,196.9,234.4,186.3z M59.7,173.6c0.3-9.9,7.7-16.9,17.9-16.9c10.4,0,18,7.5,17.9,17.4c-0.1,9.7-8.3,17.9-17.9,17.8
	C67.8,191.9,59.4,183.3,59.7,173.6z M93.5,258.7c-2.4,2.4-4.8,4.7-8.5,4.5c-5.5,0.1-9.6-2.5-12.1-7.3c-2.3-4.4-1-8.4,1.8-12.1
	c0.9-1.2,1.9-2.3,3-3.3c22.5-22.3,45-44.5,67.5-66.8c6.6-6.6,11.8-7.3,17.5-2.8c5.2,4.1,6.2,10.4,2.3,15.9c-1,1.3-2.1,2.6-3.3,3.8
	C139,213.2,116.2,235.9,93.5,258.7z M161.7,275.1c-9.9-0.1-18.2-8.2-18-17.5c0.2-9.9,7.7-17,17.8-16.9c9.9,0.1,18.2,8.1,18,17.5
	C179.3,268,171.7,275.2,161.7,275.1z"/>
</svg>
